<mxfile host="app.diagrams.net" modified="2024-01-22T07:15:50.277Z" agent="Mozilla/5.0 (Windows NT 10.0; Win64; x64) AppleWebKit/537.36 (KHTML, like Gecko) Chrome/120.0.0.0 Safari/537.36" etag="8vb1opLoOWU3DeYsZyza" version="22.1.21" type="github">
  <diagram id="C5RBs43oDa-KdzZeNtuy" name="Page-1">
    <mxGraphModel dx="1617" dy="1589" grid="1" gridSize="10" guides="1" tooltips="1" connect="1" arrows="1" fold="1" page="1" pageScale="1" pageWidth="827" pageHeight="1169" math="0" shadow="0">
      <root>
        <mxCell id="WIyWlLk6GJQsqaUBKTNV-0" />
        <mxCell id="WIyWlLk6GJQsqaUBKTNV-1" parent="WIyWlLk6GJQsqaUBKTNV-0" />
        <mxCell id="0vp4QCv9sqHgHmVTtUFz-14" value="BaseDAO.java&amp;nbsp; &amp;nbsp; 在该方法中查询出所有的 orgtype 记录" style="rounded=0;whiteSpace=wrap;html=1;align=center;verticalAlign=bottom;fontStyle=1" vertex="1" parent="WIyWlLk6GJQsqaUBKTNV-1">
          <mxGeometry x="240" y="290" width="220" height="100" as="geometry" />
        </mxCell>
        <mxCell id="0vp4QCv9sqHgHmVTtUFz-10" value="OrgTypeQryServiceImpl.class" style="rounded=0;whiteSpace=wrap;html=1;align=center;fontStyle=1;verticalAlign=bottom;" vertex="1" parent="WIyWlLk6GJQsqaUBKTNV-1">
          <mxGeometry x="-10" y="290" width="210" height="95" as="geometry" />
        </mxCell>
        <mxCell id="0vp4QCv9sqHgHmVTtUFz-6" value="OrgTypeManager.class" style="rounded=0;whiteSpace=wrap;html=1;align=right;fontStyle=1;verticalAlign=top;" vertex="1" parent="WIyWlLk6GJQsqaUBKTNV-1">
          <mxGeometry x="-10" y="-15" width="470" height="250" as="geometry" />
        </mxCell>
        <mxCell id="0vp4QCv9sqHgHmVTtUFz-3" style="edgeStyle=orthogonalEdgeStyle;rounded=0;orthogonalLoop=1;jettySize=auto;html=1;exitX=0.5;exitY=1;exitDx=0;exitDy=0;" edge="1" parent="WIyWlLk6GJQsqaUBKTNV-1" source="WIyWlLk6GJQsqaUBKTNV-3" target="0vp4QCv9sqHgHmVTtUFz-1">
          <mxGeometry relative="1" as="geometry" />
        </mxCell>
        <mxCell id="0vp4QCv9sqHgHmVTtUFz-7" value="第一次获取 map 为空" style="edgeLabel;html=1;align=center;verticalAlign=middle;resizable=0;points=[];" vertex="1" connectable="0" parent="0vp4QCv9sqHgHmVTtUFz-3">
          <mxGeometry x="0.08" y="-2" relative="1" as="geometry">
            <mxPoint as="offset" />
          </mxGeometry>
        </mxCell>
        <mxCell id="WIyWlLk6GJQsqaUBKTNV-3" value="this.getOrgTypeID_OrgTypeVO_Map" style="rounded=1;whiteSpace=wrap;html=1;fontSize=12;glass=0;strokeWidth=1;shadow=0;" parent="WIyWlLk6GJQsqaUBKTNV-1" vertex="1">
          <mxGeometry x="110" width="210" height="40" as="geometry" />
        </mxCell>
        <mxCell id="0vp4QCv9sqHgHmVTtUFz-4" style="edgeStyle=orthogonalEdgeStyle;rounded=0;orthogonalLoop=1;jettySize=auto;html=1;" edge="1" parent="WIyWlLk6GJQsqaUBKTNV-1" source="0vp4QCv9sqHgHmVTtUFz-1" target="0vp4QCv9sqHgHmVTtUFz-2">
          <mxGeometry relative="1" as="geometry" />
        </mxCell>
        <mxCell id="0vp4QCv9sqHgHmVTtUFz-11" value="map 是由所有的 orgTypeVO 组成的" style="edgeLabel;html=1;align=center;verticalAlign=middle;resizable=0;points=[];" vertex="1" connectable="0" parent="0vp4QCv9sqHgHmVTtUFz-4">
          <mxGeometry x="0.1" y="-2" relative="1" as="geometry">
            <mxPoint x="2" y="-8" as="offset" />
          </mxGeometry>
        </mxCell>
        <mxCell id="0vp4QCv9sqHgHmVTtUFz-1" value="this.initOrgtypeid_orgtypevo_map" style="rounded=1;whiteSpace=wrap;html=1;fontSize=12;glass=0;strokeWidth=1;shadow=0;" vertex="1" parent="WIyWlLk6GJQsqaUBKTNV-1">
          <mxGeometry x="120" y="90" width="200" height="40" as="geometry" />
        </mxCell>
        <mxCell id="0vp4QCv9sqHgHmVTtUFz-9" style="edgeStyle=orthogonalEdgeStyle;rounded=0;orthogonalLoop=1;jettySize=auto;html=1;" edge="1" parent="WIyWlLk6GJQsqaUBKTNV-1" source="0vp4QCv9sqHgHmVTtUFz-2" target="0vp4QCv9sqHgHmVTtUFz-8">
          <mxGeometry relative="1" as="geometry" />
        </mxCell>
        <mxCell id="0vp4QCv9sqHgHmVTtUFz-2" value="this.getAllOrgTypeVOs" style="rounded=1;whiteSpace=wrap;html=1;fontSize=12;glass=0;strokeWidth=1;shadow=0;" vertex="1" parent="WIyWlLk6GJQsqaUBKTNV-1">
          <mxGeometry x="120" y="180" width="200" height="40" as="geometry" />
        </mxCell>
        <mxCell id="0vp4QCv9sqHgHmVTtUFz-13" style="edgeStyle=orthogonalEdgeStyle;rounded=0;orthogonalLoop=1;jettySize=auto;html=1;exitX=1;exitY=0.5;exitDx=0;exitDy=0;" edge="1" parent="WIyWlLk6GJQsqaUBKTNV-1" source="0vp4QCv9sqHgHmVTtUFz-8" target="0vp4QCv9sqHgHmVTtUFz-12">
          <mxGeometry relative="1" as="geometry" />
        </mxCell>
        <mxCell id="0vp4QCv9sqHgHmVTtUFz-8" value="getAllOrgTypeVOs" style="rounded=1;whiteSpace=wrap;html=1;fontSize=12;glass=0;strokeWidth=1;shadow=0;" vertex="1" parent="WIyWlLk6GJQsqaUBKTNV-1">
          <mxGeometry x="20" y="315" width="160" height="30" as="geometry" />
        </mxCell>
        <mxCell id="0vp4QCv9sqHgHmVTtUFz-12" value="retrieveAll(Class className)" style="rounded=1;whiteSpace=wrap;html=1;fontSize=12;glass=0;strokeWidth=1;shadow=0;" vertex="1" parent="WIyWlLk6GJQsqaUBKTNV-1">
          <mxGeometry x="260" y="315" width="170" height="30" as="geometry" />
        </mxCell>
      </root>
    </mxGraphModel>
  </diagram>
</mxfile>
